#!OML:ASF E:\emotionWalksFemale\Project 1\Capture day 1\Session 1\Female1.ASF
:FULLY-SPECIFIED
:DEGREES
297
root 3.60368 15.4442 22.4498 -181.996 -12.5456 -537.636
lowerback 5.91043 1.26786 -1.49183
upperback -5.17123 1.41447 -0.126256
thorax -8.81283 0.723394 0.521368
lowerneck -4.08787 -6.93058 -12.7433
upperneck 15.5945 -10.6964 10.6547
head 6.64561 -5.50149 4.66225
rclavicle -8.15017e-015 -2.42517e-014
rhumerus -43.441 18.7744 -100.343
rradius 40.6518
rwrist 17.6663
rhand 0.868261 -52.6017
rfingers 7.12502
rthumb 26.4218 -440.78
lclavicle -8.15017e-015 -2.42517e-014
lhumerus -49.6926 0.457982 88.9835
lradius 37.6081
lwrist -9.79045
lhand -2.05054 -35.5324
lfingers 7.12502
lthumb 23.6249 -6.96387
rfemur -3.49345 10.6491 28.09
rtibia 21.363
rfoot -17.4236 -29.8934
rtoes 4.24795
lfemur -3.34704 -20.9768 -26.8587
ltibia 22.3635
lfoot -22.2031 22.5713
ltoes -51.3765
298
root 3.60025 15.4481 22.4625 -181.817 -11.1055 -537.708
lowerback 5.85386 1.57382 -1.48757
upperback -5.21314 1.82555 -0.0914976
thorax -8.83594 0.923436 0.500871
lowerneck -3.96687 -6.85201 -12.567
upperneck 15.2754 -10.5436 10.5203
head 6.48776 -5.42244 4.61045
rclavicle -2.18663e-015 -6.36111e-015
rhumerus -43.3379 18.7252 -100.168
rradius 40.7465
rwrist 17.535
rhand 1.1368 -52.6342
rfingers 7.12502
rthumb 26.6788 -440.774
lclavicle -2.18663e-015 -6.36111e-015
lhumerus -49.934 1.08427 88.6015
lradius 37.8694
lwrist -8.04544
lhand -2.72166 -35.5353
lfingers 7.12502
lthumb 22.9811 -6.88518
rfemur -4.05025 10.9632 27.8351
rtibia 21.6781
rfoot -17.1575 -28.849
rtoes 2.93739
lfemur -3.43406 -20.5975 -26.9563
ltibia 22.2257
lfoot -22.1138 23.5228
ltoes -51.3984
299
root 3.59995 15.4411 22.4739 -181.83 -10.5554 -537.737
lowerback 5.91775 1.61588 -1.38081
upperback -5.14791 1.89716 -0.0879282
thorax -8.80016 0.953356 0.434254
lowerneck -3.80236 -6.85566 -12.2523
upperneck 14.7535 -10.4567 10.2157
head 6.25223 -5.37155 4.47673
rclavicle 1.59028e-015 6.36111e-015
rhumerus -43.2935 18.6105 -99.9458
rradius 40.91
rwrist 17.4944
rhand -0.135881 -52.0153
rfingers 7.12502
rthumb 25.4602 -440.335
lclavicle 1.59028e-015 6.36111e-015
lhumerus -50.075 1.53582 88.2535
lradius 38.1661
lwrist -6.51176
lhand -3.1927 -35.7178
lfingers 7.12502
lthumb 22.529 -7.01219
rfemur -4.30011 10.9085 27.7304
rtibia 22.0526
rfoot -17.3722 -28.3069
rtoes 2.67135
lfemur -3.3751 -20.3009 -27.0126
ltibia 22.0882
lfoot -21.615 24.0523
ltoes -51.971
300
root 3.59936 15.4363 22.4846 -181.894 -9.95981 -537.8
lowerback 6.01616 1.66456 -1.2616
upperback -5.04546 1.98095 -0.0899407
thorax -8.74353 0.989276 0.352576
lowerneck -3.81216 -6.84261 -12.1069
upperneck 14.3729 -10.3512 10.0399
head 6.10613 -5.30887 4.40798
rclavicle 9.34288e-015 -4.77083e-015
rhumerus -43.1995 18.4945 -99.65
rradius 41.0775
rwrist 17.2152
rhand -0.224451 -51.8558
rfingers 7.12502
rthumb 25.3754 -440.187
lclavicle 9.34288e-015 -4.77083e-015
lhumerus -50.1065 1.90646 87.9785
lradius 38.427
lwrist -5.39348
lhand -3.55704 -35.7779
lfingers 7.12502
lthumb 22.1793 -7.03029
rfemur -4.50254 10.8823 27.5995
rtibia 22.4558
rfoot -17.5445 -27.7894
rtoes 2.25339
lfemur -3.24675 -20.011 -27.1337
ltibia 22.0018
lfoot -21.5005 24.4266
ltoes -52.0457
301
root 3.60197 15.4375 22.492 -181.826 -9.56752 -538.011
lowerback 5.94992 1.64358 -1.45907
upperback -4.95388 1.94053 -0.0672808
thorax -8.61256 0.983631 0.495769
lowerneck -3.86954 -6.766 -12.1888
upperneck 14.0655 -10.1961 10.1547
head 6.012 -5.21925 4.47236
rclavicle -3.79182e-014 4.77083e-015
rhumerus -43.0376 18.4242 -99.2883
rradius 41.1923
rwrist 16.7708
rhand -1.08205 -51.6532
rfingers 7.12502
rthumb 24.5536 -440.099
lclavicle -3.79182e-014 4.77083e-015
lhumerus -50.1468 2.18901 87.8281
lradius 38.7032
lwrist -4.64062
lhand -3.71247 -35.8718
lfingers 7.12502
lthumb 22.03 -7.10656
rfemur -4.76648 10.7451 27.3294
rtibia 22.8137
rfoot -17.5161 -27.4275
rtoes 1.04299
lfemur -3.26333 -19.7382 -27.3341
ltibia 21.9809
lfoot -21.595 24.4798
ltoes -52.0973
302
root 3.60664 15.4356 22.4977 -181.805 -9.38276 -538.159
lowerback 5.8556 1.5681 -1.66639
upperback -4.81538 1.83121 -0.0285706
thorax -8.41316 0.945644 0.671779
lowerneck -3.71885 -6.70087 -12.3057
upperneck 13.4838 -10.0785 10.4592
head 5.81192 -5.14319 4.60811
rclavicle 3.27995e-015 -1.59028e-015
rhumerus -42.8685 18.1579 -98.8653
rradius 41.2903
rwrist 16.8332
rhand 0.102117 -51.5554
rfingers 7.12502
rthumb 25.6882 -439.842
lclavicle 3.27995e-015 -1.59028e-015
lhumerus -50.1336 2.25095 87.7172
lradius 38.9749
lwrist -4.06985
lhand -3.30605 -35.9372
lfingers 7.12502
lthumb 22.4202 -7.21839
rfemur -4.96132 10.4986 27.1612
rtibia 23.1677
rfoot -17.4727 -27.169
rtoes 0.0544798
lfemur -3.272 -19.4782 -27.4486
ltibia 21.989
lfoot -21.6047 24.3267
ltoes -52.2244
303
root 3.61133 15.4302 22.5043 -181.917 -9.185 -538.163
lowerback 5.89113 1.47923 -1.6963
upperback -4.6427 1.72493 0.0348042
thorax -8.24701 0.900316 0.770543
lowerneck -3.49168 -6.63526 -12.3408
upperneck 12.7346 -9.93562 10.6693
head 5.53601 -5.05538 4.70528
rclavicle -7.45443e-015 9.14409e-015
rhumerus -42.8438 17.928 -98.5696
rradius 41.3115
rwrist 17.5083
rhand -3.35118 -50.3772
rfingers 7.12502
rthumb 22.3769 -439.101
lclavicle -7.45443e-015 9.14409e-015
lhumerus -50.0656 2.16442 87.6304
lradius 39.2376
lwrist -3.77917
lhand -2.68573 -35.747
lfingers 7.12502
lthumb 23.0155 -7.10121
rfemur -5.05316 10.2799 27.159
rtibia 23.5094
rfoot -17.4453 -26.9115
rtoes -0.978664
lfemur -3.1908 -19.2205 -27.4505
ltibia 22.0507
lfoot -21.9196 24.0026
ltoes -51.7369
304
root 3.61697 15.426 22.5137 -181.983 -8.90177 -538.143
lowerback 6.01681 1.42357 -1.61919
upperback -4.52741 1.66405 0.0368207
thorax -8.19149 0.868421 0.735733
lowerneck -3.39472 -6.56029 -12.1791
upperneck 12.1243 -9.77302 10.7156
head 5.30636 -4.95617 4.7143
rclavicle -5.17834e-014 -1.19271e-014
rhumerus -42.6932 17.5054 -98.2397
rradius 41.741
rwrist 16.1528
rhand -0.23963 -51.708
rfingers 7.12502
rthumb 25.3608 -440.042
lclavicle -5.17834e-014 -1.19271e-014
lhumerus -50.0533 1.788 87.5675
lradius 39.487
lwrist -3.78758
lhand -2.40005 -35.5625
lfingers 7.12502
lthumb 23.2896 -6.95115
rfemur -5.25063 10.0549 27.1619
rtibia 23.849
rfoot -17.3475 -26.5444
rtoes -1.47713
lfemur -3.20809 -19.0085 -27.4067
ltibia 22.1465
lfoot -22.2959 23.7623
ltoes -51.0888
305
root 3.62491 15.4224 22.5254 -182.057 -8.53197 -538.089
lowerback 6.23095 1.42009 -1.48982
upperback -4.42998 1.67381 0.00167667
thorax -8.20623 0.867154 0.620852
lowerneck -3.51156 -6.52406 -11.8552
upperneck 11.7741 -9.67383 10.6678
head 5.18913 -4.88396 4.65303
rclavicle 3.43897e-014 -9.14409e-015
rhumerus -42.5586 17.0328 -97.9313
rradius 42.0311
rwrist 15.6491
rhand -1.142 -51.481
rfingers 7.12502
rthumb 24.4961 -439.934
lclavicle 3.43897e-014 -9.14409e-015
lhumerus -49.9663 1.30817 87.4625
lradius 39.5684
lwrist -4.02445
lhand -2.30141 -35.4642
lfingers 7.12502
lthumb 23.3843 -6.86478
rfemur -5.49036 9.8346 27.206
rtibia 24.2278
rfoot -17.2078 -26.132
rtoes -2.12196
lfemur -3.2356 -18.8301 -27.3133
ltibia 22.2208
lfoot -22.6032 23.6265
ltoes -50.4212
306
root 3.63289 15.4182 22.5362 -182.231 -8.09266 -538.119
lowerback 6.48081 1.43365 -1.54559
upperback -4.26602 1.69723 0.0420734
thorax -8.17906 0.886512 0.687316
lowerneck -3.7643 -6.48551 -11.6984
upperneck 11.5938 -9.56743 10.6496
head 5.15643 -4.81118 4.62342
rclavicle -1.0635e-014 2.38542e-015
rhumerus -42.4948 16.726 -97.5234
rradius 42.3233
rwrist 15.4556
rhand -1.43515 -51.2997
rfingers 7.12502
rthumb 24.2151 -439.791
lclavicle -1.0635e-014 2.38542e-015
lhumerus -49.7956 0.998525 87.4655
lradius 39.6081
lwrist -4.56471
lhand -2.16255 -35.2439
lfingers 7.12502
lthumb 23.5175 -6.66151
rfemur -5.59676 9.74945 27.1928
rtibia 24.6133
rfoot -17.3065 -25.7757
rtoes -2.72931
lfemur -3.11377 -18.5806 -27.3533
ltibia 22.2701
lfoot -22.6776 23.6284
ltoes -49.7904
307
root 3.63869 15.4164 22.5476 -182.341 -7.57903 -538.199
lowerback 6.6423 1.46142 -1.65713
upperback -4.09898 1.73693 0.122182
thorax -8.10073 0.917283 0.82683
lowerneck -3.93771 -6.37917 -11.8114
upperneck 11.3254 -9.37509 10.8455
head 5.09606 -4.69925 4.71609
rclavicle 3.01159e-014 -4.37326e-015
rhumerus -42.4158 16.5936 -97.0865
rradius 42.5138
rwrist 15.1282
rhand 0.0435886 -52.2129
rfingers 7.12502
rthumb 25.6321 -440.508
lclavicle 3.01159e-014 -4.37326e-015
lhumerus -49.6996 0.443387 87.7287
lradius 39.8262
lwrist -4.96958
lhand -1.95517 -34.9042
lfingers 7.12502
lthumb 23.7164 -6.34748
rfemur -5.81213 9.70443 27.1046
rtibia 25.06
rfoot -17.5609 -25.3348
rtoes -2.65207
lfemur -3.01599 -18.2541 -27.4428
ltibia 22.2546
lfoot -22.5506 23.7442
ltoes -49.2554
308
root 3.65185 15.4138 22.5552 -182.548 -7.81974 -538.137
lowerback 6.93986 1.2069 -1.70167
upperback -3.95721 1.40391 0.234054
thorax -8.1157 0.763309 1.01089
lowerneck -3.89306 -6.20579 -11.9341
upperneck 10.8206 -9.10421 11.1444
head 4.92141 -4.55123 4.85748
rclavicle 2.26118e-014 -1.19271e-015
rhumerus -42.3411 16.4157 -96.6747
rradius 42.5992
rwrist 14.9684
rhand -1.03932 -51.6199
rfingers 7.12502
rthumb 24.5945 -440.06
lclavicle 2.26118e-014 -1.19271e-015
lhumerus -49.6897 -0.343792 88.0663
lradius 40.0048
lwrist -5.1718
lhand -1.91237 -35.0692
lfingers 7.12502
lthumb 23.7574 -6.51777
rfemur -5.89323 9.31437 27.2455
rtibia 25.6252
rfoot -18.218 -25.2892
rtoes -2.0828
lfemur -2.76918 -17.9855 -27.3153
ltibia 22.1091
lfoot -22.3911 23.2262
ltoes -49.0486
309
root 3.66233 15.412 22.5709 -182.565 -7.82936 -538.261
lowerback 7.32462 1.0076 -1.93069
upperback -3.9726 1.11368 0.321756
thorax -8.35507 0.639628 1.26712
lowerneck -3.78961 -5.96367 -11.9702
upperneck 10.3883 -8.74882 11.3258
head 4.73886 -4.36836 4.95485
rclavicle -1.39149e-015 1.03368e-014
rhumerus -42.5644 16.3047 -96.3437
rradius 42.9502
rwrist 14.5923
rhand -1.30448 -51.7023
rfingers 7.12502
rthumb 24.3403 -440.177
lclavicle -1.39149e-015 1.03368e-014
lhumerus -49.7335 -0.931512 88.3282
lradius 39.9718
lwrist -5.66481
lhand -1.88222 -35.8767
lfingers 7.12502
lthumb 23.7864 -7.32909
rfemur -6.25838 8.78147 27.0866
rtibia 26.2545
rfoot -18.6634 -24.9543
rtoes -2.70163
lfemur -2.73811 -17.6412 -27.3465
ltibia 21.9601
lfoot -22.1009 22.9176
ltoes -49.2075
310
root 3.66611 15.4114 22.5831 -182.483 -7.46978 -538.65
lowerback 7.55577 0.995164 -2.35303
upperback -4.01365 1.0418 0.291256
thorax -8.54156 0.629201 1.47953
lowerneck -3.74145 -5.73579 -11.799
upperneck 10.2091 -8.42838 11.2896
head 4.62836 -4.20641 4.94274
rclavicle 2.72335e-014 1.63003e-014
rhumerus -42.9936 16.0687 -96.0178
rradius 43.5877
rwrist 14.1966
rhand -1.56704 -51.6422
rfingers 7.12502
rthumb 24.0886 -440.15
lclavicle 2.72335e-014 1.63003e-014
lhumerus -49.791 -1.3825 88.212
lradius 39.0855
lwrist -7.20646
lhand -2.83777 -39.0811
lfingers 7.12502
lthumb 22.8697 -10.4172
rfemur -6.70738 8.27015 26.5742
rtibia 26.8858
rfoot -18.5458 -24.3378
rtoes -5.1106
lfemur -2.78939 -17.3858 -27.7182
ltibia 21.906
lfoot -21.9451 23.0701
ltoes -49.0888
311
root 3.66804 15.4057 22.5913 -182.452 -6.87141 -538.878
lowerback 7.68916 1.08717 -2.45179
upperback -4.01469 1.1427 0.189248
thorax -8.6258 0.681512 1.40986
lowerneck -3.78007 -5.55986 -11.4963
upperneck 10.1364 -8.19607 11.2535
head 4.57065 -4.08252 4.89875
rclavicle 1.2275e-014 1.11319e-014
rhumerus -43.2304 15.5395 -95.6826
rradius 43.9419
rwrist 14.0737
rhand -1.35731 -51.6791
rfingers 7.12502
rthumb 24.2897 -440.16
lclavicle 1.2275e-014 1.11319e-014
lhumerus -49.9179 -2.79491 88.8399
lradius 39.8449
lwrist -6.5032
lhand -1.49289 -36.2988
lfingers 7.12502
lthumb 24.1597 -7.80032
rfemur -7.18421 7.97168 26.2719
rtibia 27.6606
rfoot -19.1191 -23.8436
rtoes -7.29254
lfemur -2.72567 -17.1886 -27.9592
ltibia 21.7339
lfoot -21.9485 23.4432
ltoes -48.7916
